<svg width="24" height="24" viewBox="0 0 24 24" fill="none" xmlns="http://www.w3.org/2000/svg">
<g clip-path="url(#clip0_5091_6)">
<path d="M19.58 0.105469H4.59973C2.1166 0.105469 0.105347 2.11672 0.105347 4.59985V19.5802C0.105347 22.0633 2.1166 24.0745 4.59973 24.0745H19.58C22.0632 24.0745 24.0744 22.0633 24.0744 19.5802V4.59985C24.0744 2.11672 22.0632 0.105469 19.58 0.105469ZM6.47191 18.4566C6.47191 19.0774 5.96911 19.5802 5.34831 19.5802C4.72751 19.5802 4.22472 19.0774 4.22472 18.4566V13.5886C4.22472 12.9678 4.72751 12.465 5.34831 12.465C5.96911 12.465 6.47191 12.9678 6.47191 13.5886V18.4566ZM10.9663 18.4566C10.9663 19.0774 10.4635 19.5802 9.8427 19.5802C9.2219 19.5802 8.7191 19.0774 8.7191 18.4566V10.5914C8.7191 9.972 9.2219 9.46781 9.8427 9.46781C10.4635 9.46781 10.9663 9.972 10.9663 10.5914V18.4566ZM15.4607 18.4566C15.4607 19.0774 14.9579 19.5802 14.3371 19.5802C13.7163 19.5802 13.2135 19.0774 13.2135 18.4566V4.59985C13.2135 3.97905 13.7163 3.47626 14.3371 3.47626C14.9579 3.47626 15.4607 3.97905 15.4607 4.59985V18.4566ZM19.9551 18.4566C19.9551 19.0774 19.4523 19.5802 18.8315 19.5802C18.2107 19.5802 17.7079 19.0774 17.7079 18.4566V7.59563C17.7079 6.97483 18.2107 6.47203 18.8315 6.47203C19.4523 6.47203 19.9551 6.97483 19.9551 7.59563V18.4566Z" fill="white"/>
</g>
<defs>
<clipPath id="clip0_5091_6">
<rect width="24" height="24" fill="white"/>
</clipPath>
</defs>
</svg>
