<svg width="20" height="20" viewBox="0 0 20 20" fill="none" xmlns="http://www.w3.org/2000/svg">
<path d="M18.0352 8.62519H5.18691L8.26837 5.47955C8.52065 5.22089 8.66238 4.87006 8.66238 4.50426C8.66238 4.13846 8.52065 3.78764 8.26837 3.52898C8.01608 3.27031 7.67392 3.125 7.31713 3.125C6.96035 3.125 6.61818 3.27031 6.3659 3.52898L1.00685 9.02354C0.884878 9.15418 0.789266 9.30823 0.7255 9.47684C0.5915 9.81127 0.5915 10.1864 0.7255 10.5208C0.789266 10.6894 0.884878 10.8435 1.00685 10.9741L6.3659 16.4687C6.49045 16.5974 6.63863 16.6996 6.80189 16.7694C6.96515 16.8391 7.14027 16.875 7.31713 16.875C7.494 16.875 7.66911 16.8391 7.83238 16.7694C7.99564 16.6996 8.14382 16.5974 8.26837 16.4687C8.39394 16.341 8.49361 16.1891 8.56163 16.0217C8.62965 15.8543 8.66467 15.6747 8.66467 15.4934C8.66467 15.3121 8.62965 15.1325 8.56163 14.9651C8.49361 14.7977 8.39394 14.6458 8.26837 14.5181L5.18691 11.3725H18.0352C18.3906 11.3725 18.7313 11.2277 18.9826 10.9701C19.2338 10.7125 19.375 10.3631 19.375 9.99883C19.375 9.63451 19.2338 9.28512 18.9826 9.02752C18.7313 8.76991 18.3906 8.62519 18.0352 8.62519Z" fill="#101129"/>
</svg>
