<svg width="36" height="36" viewBox="0 0 36 36" fill="none" xmlns="http://www.w3.org/2000/svg">
<g clip-path="url(#clip0_2790_1439)">
<path d="M10.5 8.7002C9.50939 8.70028 8.7002 9.50937 8.7002 10.5V25.5C8.7002 26.4906 9.50939 27.2997 10.5 27.2998C11.4907 27.2998 12.2998 26.4907 12.2998 25.5V10.5C12.2998 9.50931 11.4907 8.7002 10.5 8.7002ZM26.7773 9.83789C26.0752 9.13577 24.9404 9.13585 24.2383 9.83789L17.3525 16.7383C16.6509 17.4404 16.6507 18.5753 17.3525 19.2773L24.2383 26.1621C24.9404 26.8641 26.0752 26.8642 26.7773 26.1621C27.4794 25.46 27.4794 24.3252 26.7773 23.623L21.1543 18L26.7773 12.377C27.4658 11.6884 27.462 10.5408 26.7803 9.84082L26.7773 9.83789Z" fill="white" stroke="white" stroke-width="0.6"/>
</g>
<defs>
<clipPath id="clip0_2790_1439">
<rect width="36" height="36" fill="white" transform="matrix(-1 0 0 1 36 0)"/>
</clipPath>
</defs>
</svg>
