<svg width="1306" height="235" viewBox="0 0 1306 235" fill="none" xmlns="http://www.w3.org/2000/svg">
<g clip-path="url(#clip0_3224_834)">
<path d="M207.284 46.6992L178.184 70.9992C164.684 50.5992 141.584 38.2992 115.484 38.2992C73.184 38.2992 44.084 70.6992 44.084 117.199C44.084 164.299 73.184 196.399 115.484 196.399C141.584 196.399 164.384 183.799 177.884 163.699L206.084 188.899C186.584 217.699 155.384 234.799 115.484 234.799C46.184 234.799 0.583984 185.899 0.583984 117.499C0.583984 49.0992 48.584 0.199219 115.484 0.199219C155.384 0.199219 187.784 17.8992 207.284 46.6992ZM303.089 234.799C254.789 234.799 219.989 199.999 219.989 152.299C219.989 104.299 254.789 69.7992 303.089 69.7992C351.389 69.7992 386.489 104.299 386.489 152.299C386.489 199.999 351.389 234.799 303.089 234.799ZM303.089 197.599C327.689 197.599 344.189 178.699 344.189 151.699C344.189 124.999 327.689 106.399 303.089 106.399C278.789 106.399 261.989 124.999 261.989 151.699C261.989 178.699 278.789 197.599 303.089 197.599ZM503.559 229.999H446.859L398.259 74.5992H442.359L474.759 193.399H475.959L508.059 74.5992H551.859L503.559 229.999ZM710.934 204.799C695.034 225.499 673.734 234.799 647.334 234.799C598.134 234.799 563.934 199.999 563.934 152.299C563.934 103.999 598.434 69.7992 646.734 69.7992C692.334 69.7992 722.934 104.299 722.934 152.299C722.934 156.499 722.634 161.599 721.734 165.499H607.434C611.934 185.899 626.034 197.599 647.634 197.599C665.034 197.599 676.434 192.199 686.634 179.299L710.934 204.799ZM645.834 106.399C625.434 106.399 611.634 118.699 607.434 138.799H681.834C678.834 119.299 665.334 106.399 645.834 106.399ZM752.552 229.999V4.99921H794.552V193.399H826.952V229.999H752.552ZM840.504 152.299C840.504 103.699 873.504 69.7992 917.904 69.7992C941.604 69.7992 959.904 79.9992 968.004 94.3992H969.204C968.904 91.9992 968.604 88.9992 968.604 80.5992V74.5992H1007V229.999H968.604V222.799C968.604 215.899 968.904 211.699 969.204 208.399H968.004C959.004 224.599 939.804 234.799 916.104 234.799C871.704 234.799 840.504 200.899 840.504 152.299ZM924.804 197.599C949.404 197.599 967.104 178.699 967.104 151.699C967.104 124.999 949.404 106.399 924.804 106.399C900.504 106.399 882.804 124.999 882.804 151.699C882.804 178.699 900.504 197.599 924.804 197.599ZM1047.86 74.5992H1179.86V229.999H1137.86V110.599H1089.86V229.999H1047.86V74.5992ZM1227.02 229.999V110.599H1212.32V74.5992H1227.02V34.9992H1269.02V74.5992H1305.02V110.599H1269.02V193.399H1300.52V229.999H1227.02Z" fill="#101129"/>
</g>
<defs>
<clipPath id="clip0_3224_834">
<rect width="1306" height="235" fill="white"/>
</clipPath>
</defs>
</svg>
