<svg width="24" height="24" viewBox="0 0 24 24" fill="none" xmlns="http://www.w3.org/2000/svg">
<path fill-rule="evenodd" clip-rule="evenodd" d="M19.5 12.2393C19.4918 12.1282 19.4576 12.0205 19.4003 11.9249C19.343 11.8293 19.2642 11.7485 19.17 11.6889L5.565 3.64874H5.5575C5.4504 3.58828 5.32949 3.55664 5.2065 3.55664C5.08351 3.55664 4.9626 3.58828 4.8555 3.64874C4.74729 3.71157 4.65749 3.80175 4.59509 3.91022C4.5327 4.01868 4.49991 4.14178 4.5 4.26691V20.3064C4.50224 20.4292 4.53614 20.5493 4.59842 20.6552C4.6607 20.7611 4.74924 20.8492 4.8555 20.9108C4.96206 20.9705 5.08213 21.0018 5.20425 21.0018C5.32637 21.0018 5.44644 20.9705 5.553 20.9108H5.559L19.149 12.8784C19.2559 12.8152 19.3446 12.7253 19.4061 12.6174C19.4677 12.5096 19.5 12.3875 19.5 12.2633C19.5006 12.2468 19.5006 12.2304 19.5 12.2139V12.2393Z" fill="white"/>
</svg>
