<svg width="36" height="36" viewBox="0 0 36 36" fill="none" xmlns="http://www.w3.org/2000/svg">
<g clip-path="url(#clip0_2790_1436)">
<path d="M25.5 8.7002C26.4906 8.70028 27.2998 9.50937 27.2998 10.5V25.5C27.2998 26.4906 26.4906 27.2997 25.5 27.2998C24.5093 27.2998 23.7002 26.4907 23.7002 25.5V10.5C23.7002 9.50931 24.5093 8.7002 25.5 8.7002ZM9.22266 9.83789C9.92477 9.13577 11.0596 9.13585 11.7617 9.83789L18.6475 16.7383C19.3491 17.4404 19.3493 18.5753 18.6475 19.2773L11.7617 26.1621C11.0596 26.8641 9.92477 26.8642 9.22266 26.1621C8.52058 25.46 8.52063 24.3252 9.22266 23.623L14.8457 18L9.22266 12.377C8.53419 11.6884 8.53796 10.5408 9.21973 9.84082L9.22266 9.83789Z" fill="white" stroke="white" stroke-width="0.6"/>
</g>
<defs>
<clipPath id="clip0_2790_1436">
<rect width="36" height="36" fill="white"/>
</clipPath>
</defs>
</svg>
