<svg width="24" height="24" viewBox="0 0 24 24" fill="none" xmlns="http://www.w3.org/2000/svg">
<path d="M19.9108 18.322L14.6634 13.0746C15.3514 12.0999 15.7274 10.9397 15.7428 9.74644C15.7428 8.15614 15.1111 6.63053 13.9867 5.50615C12.8623 4.38176 11.3367 3.75 9.74642 3.75C8.15609 3.75 6.63053 4.38176 5.50614 5.50615C4.38176 6.63053 3.75 8.1561 3.75 9.74644C3.75 11.3368 4.38176 12.8623 5.50614 13.9867C6.63053 15.1111 8.15609 15.7429 9.74642 15.7429C10.9481 15.7464 12.1224 15.3831 13.1118 14.7014L18.3592 19.9488V19.9481C18.8019 20.3613 19.4927 20.3486 19.9207 19.9207C20.3486 19.4927 20.3613 18.8019 19.9481 18.3592L19.9108 18.322ZM9.74636 13.4942C8.75269 13.4942 7.79911 13.0992 7.09642 12.3965C6.39372 11.6937 5.99873 10.7401 5.99873 9.74651C5.99873 8.75291 6.39367 7.79925 7.09642 7.09655C7.79916 6.39386 8.75277 5.99886 9.74636 5.99886C10.74 5.99886 11.6936 6.3938 12.3963 7.09655C13.099 7.7993 13.494 8.75291 13.494 9.74651C13.4968 10.3502 13.3499 10.9447 13.0667 11.4781C12.7154 12.1597 12.1595 12.7156 11.4778 13.067C10.9445 13.3502 10.35 13.497 9.74636 13.4942Z" fill="#AAAAAA"/>
</svg>
