<svg width="90" height="88" viewBox="0 0 90 88" fill="none" xmlns="http://www.w3.org/2000/svg">
<path d="M32.6625 28.2699L41.25 19.8366V54.9999C41.25 55.9724 41.6451 56.905 42.3484 57.5927C43.0516 58.2803 44.0054 58.6666 45 58.6666C45.9946 58.6666 46.9484 58.2803 47.6516 57.5927C48.3549 56.905 48.75 55.9724 48.75 54.9999V19.8366L57.3375 28.2699C57.6861 28.6136 58.1009 28.8864 58.5578 29.0725C59.0148 29.2587 59.505 29.3545 60 29.3545C60.495 29.3545 60.9852 29.2587 61.4422 29.0725C61.8991 28.8864 62.3139 28.6136 62.6625 28.2699C63.014 27.9291 63.293 27.5235 63.4833 27.0767C63.6737 26.6299 63.7717 26.1507 63.7717 25.6666C63.7717 25.1826 63.6737 24.7033 63.4833 24.2565C63.293 23.8097 63.014 23.4041 62.6625 23.0633L47.6625 8.39661C47.3059 8.0628 46.8853 7.80112 46.425 7.62661C45.512 7.25988 44.488 7.25988 43.575 7.62661C43.1147 7.80112 42.6941 8.0628 42.3375 8.39661L27.3375 23.0633C26.9879 23.4052 26.7105 23.811 26.5213 24.2577C26.3321 24.7044 26.2347 25.1831 26.2347 25.6666C26.2347 26.1501 26.3321 26.6288 26.5213 27.0755C26.7105 27.5222 26.9879 27.9281 27.3375 28.2699C27.6871 28.6118 28.1022 28.883 28.5591 29.068C29.0159 29.2531 29.5055 29.3483 30 29.3483C30.4945 29.3483 30.9841 29.2531 31.4409 29.068C31.8978 28.883 32.3129 28.6118 32.6625 28.2699ZM78.75 51.3333C77.7554 51.3333 76.8016 51.7196 76.0983 52.4072C75.3951 53.0949 75 54.0275 75 54.9999V69.6666C75 70.6391 74.6049 71.5717 73.9017 72.2593C73.1984 72.947 72.2446 73.3333 71.25 73.3333H18.75C17.7554 73.3333 16.8016 72.947 16.0984 72.2593C15.3951 71.5717 15 70.6391 15 69.6666V54.9999C15 54.0275 14.6049 53.0949 13.9017 52.4072C13.1984 51.7196 12.2446 51.3333 11.25 51.3333C10.2554 51.3333 9.30161 51.7196 8.59835 52.4072C7.89509 53.0949 7.5 54.0275 7.5 54.9999V69.6666C7.5 72.584 8.68526 75.3819 10.795 77.4448C12.9048 79.5077 15.7663 80.6666 18.75 80.6666H71.25C74.2337 80.6666 77.0952 79.5077 79.205 77.4448C81.3147 75.3819 82.5 72.584 82.5 69.6666V54.9999C82.5 54.0275 82.1049 53.0949 81.4017 52.4072C80.6984 51.7196 79.7446 51.3333 78.75 51.3333Z" fill="#D5D5D5"/>
</svg>
