<svg width="30" height="30" viewBox="0 0 30 30" fill="none" xmlns="http://www.w3.org/2000/svg">
<path d="M28.3203 0C28.7644 0 29.1908 0.176164 29.5049 0.490234C29.819 0.804418 29.9951 1.2314 29.9951 1.67578C29.995 2.1196 29.8193 2.54537 29.5059 2.85938L17.3408 14.998L29.5059 27.1357L29.5078 27.1387C29.6636 27.2933 29.7876 27.477 29.8721 27.6797C29.9566 27.8825 30 28.1006 30 28.3203C30 28.5399 29.9565 28.7573 29.8721 28.96C29.7876 29.1628 29.6638 29.3472 29.5078 29.502L29.502 29.5078C29.3472 29.6638 29.1627 29.7876 28.96 29.8721C28.7573 29.9565 28.5398 30 28.3203 30C28.1007 30 27.8834 29.9565 27.6807 29.8721C27.4779 29.7876 27.2934 29.6638 27.1387 29.5078L27.1367 29.5059L15 17.3389L2.86328 29.5059L2.86133 29.5078C2.70662 29.6638 2.5221 29.7876 2.31934 29.8721C2.11665 29.9565 1.89926 30 1.67969 30C1.46016 30 1.2427 29.9565 1.04004 29.8721C0.837288 29.7876 0.652751 29.6638 0.498047 29.5078L0.492188 29.502L0.381836 29.3809C0.2771 29.2542 0.191367 29.1122 0.12793 28.96C0.0435363 28.7573 3.05865e-05 28.5399 0 28.3203C0 28.1006 0.0434342 27.8825 0.12793 27.6797C0.212375 27.477 0.336369 27.2933 0.492188 27.1387L0.494141 27.1357L12.6592 14.998L0.494141 2.85938C0.180651 2.54537 0.00499074 2.1196 0.00488281 1.67578C0.00488282 1.2314 0.180979 0.804417 0.495117 0.490234C0.809234 0.176165 1.23558 3.30933e-09 1.67969 0C2.12335 3.91055e-05 2.54928 0.175741 2.86328 0.489258L15 12.6572L27.1367 0.490234L27.1357 0.489258C27.4498 0.175434 27.8764 3.95818e-05 28.3203 0Z" fill="white"/>
</svg>
